<?xml version="1.0" encoding="UTF-8" standalone="no"?>
<!DOCTYPE svg PUBLIC "-//W3C//DTD SVG 1.1//EN" "http://www.w3.org/Graphics/SVG/1.1/DTD/svg11.dtd">
<svg width="100%" height="100%" viewBox="0 0 58 61" version="1.1" xmlns="http://www.w3.org/2000/svg" xmlns:xlink="http://www.w3.org/1999/xlink" xml:space="preserve" xmlns:serif="http://www.serif.com/" style="fill-rule:evenodd;clip-rule:evenodd;stroke-linejoin:round;stroke-miterlimit:1.41421;">
    <g transform="matrix(0.75,0,0,0.75,0,0)">
        <g transform="matrix(0.157508,0,0,0.157508,-2.02713,0)">
            <path d="M489.129,42.371L457.118,42.371L457.118,10C457.118,4.477 452.641,0 447.118,0C441.595,0 437.118,4.477 437.118,10L437.118,48.237L395.312,90.157C353.139,51.772 298.927,30.739 241.552,30.739C180.469,30.739 123.041,54.526 79.849,97.718C36.657,140.91 12.87,198.338 12.87,259.421C12.87,320.504 36.657,377.932 79.849,421.124C86.568,427.843 93.632,434.091 101,439.854L45.926,494.928C42.021,498.833 42.021,505.165 45.926,509.071C47.879,511.023 50.438,512 52.997,512C55.556,512 58.116,511.023 60.068,509.071L117.52,451.618C154.149,475.36 196.868,488.103 241.551,488.103C286.452,488.103 329.369,475.235 366.117,451.27L423.918,509.071C425.871,511.023 428.43,512 430.989,512C433.548,512 436.108,511.023 438.06,509.071C441.965,505.166 441.966,498.834 438.06,494.928L382.593,439.461C389.783,433.805 396.685,427.692 403.254,421.124C446.446,377.932 470.233,320.504 470.233,259.421C470.233,224.632 462.619,191.222 447.603,160.118C445.202,155.144 439.222,153.058 434.25,155.46C429.276,157.861 427.191,163.839 429.592,168.813C443.288,197.183 450.233,227.668 450.233,259.421C450.233,374.489 356.618,468.104 241.55,468.104C126.482,468.104 32.867,374.49 32.867,259.421C32.867,144.353 126.482,50.738 241.55,50.738C293.595,50.738 342.792,69.696 381.177,104.328L346.078,139.523C317.102,114.198 280.361,100.352 241.551,100.352C153.84,100.352 82.482,171.71 82.482,259.421C82.482,347.132 153.842,418.49 241.553,418.49C329.264,418.49 400.622,347.132 400.622,259.421C400.622,245.275 398.763,231.243 395.095,217.713C388.659,193.967 376.702,171.987 360.298,153.588L402.574,111.197C402.587,111.184 402.602,111.173 402.615,111.16C402.627,111.148 402.636,111.135 402.648,111.124L451.269,62.371L489.13,62.371C494.653,62.371 499.13,57.894 499.13,52.371C499.13,46.848 494.652,42.371 489.129,42.371ZM375.792,222.945C378.998,234.77 380.623,247.042 380.623,259.421C380.623,336.104 318.237,398.49 241.554,398.49C164.871,398.49 102.485,336.103 102.485,259.421C102.485,182.739 164.871,120.352 241.554,120.352C275.033,120.352 306.756,132.131 331.929,153.714L290.644,195.111C277.016,184.683 260,178.468 241.554,178.468C196.917,178.468 160.601,214.783 160.601,259.421C160.601,304.059 196.916,340.374 241.554,340.374C286.192,340.374 322.507,304.059 322.507,259.421C322.507,240.424 315.913,222.948 304.915,209.124L346.147,167.78C360.089,183.686 370.271,202.573 375.792,222.945ZM235.828,264.236C237.78,266.182 240.335,267.155 242.89,267.155C245.453,267.155 248.017,266.176 249.971,264.217L290.681,223.396C298.107,233.496 302.506,245.952 302.506,259.421C302.506,293.03 275.163,320.374 241.553,320.374C207.943,320.374 180.6,293.03 180.6,259.421C180.6,225.812 207.943,198.468 241.553,198.468C254.488,198.468 266.486,202.53 276.363,209.429L235.809,250.093C231.909,254.004 231.917,260.335 235.828,264.236Z" style="fill:rgb(221,220,197);fill-rule:nonzero;"/>
            <circle cx="419.22" cy="133.64" r="10" style="fill:rgb(221,220,197);"/>
        </g>
    </g>
</svg>
