<?xml version="1.0" encoding="UTF-8" standalone="no"?>
<!DOCTYPE svg PUBLIC "-//W3C//DTD SVG 1.1//EN" "http://www.w3.org/Graphics/SVG/1.1/DTD/svg11.dtd">
<svg width="100%" height="100%" viewBox="0 0 15 15" version="1.1" xmlns="http://www.w3.org/2000/svg" xmlns:xlink="http://www.w3.org/1999/xlink" xml:space="preserve" xmlns:serif="http://www.serif.com/" style="fill-rule:evenodd;clip-rule:evenodd;stroke-linejoin:round;stroke-miterlimit:1.41421;">
    <g transform="matrix(0.75,0,0,0.75,0,0)">
        <g transform="matrix(0.0390625,0,0,0.0390625,0,0)">
            <circle cx="386" cy="210" r="20" style="fill:white;"/>
            <path d="M432,40L406,40L406,20C406,8.954 397.046,0 386,0C374.954,0 366,8.954 366,20L366,40L275,40L275,20C275,8.954 266.046,0 255,0C243.954,0 235,8.954 235,20L235,40L145,40L145,20C145,8.954 136.046,0 125,0C113.954,0 105,8.954 105,20L105,40L80,40C35.888,40 0,75.888 0,120L0,432C0,476.112 35.888,512 80,512L233,512C244.046,512 253,503.046 253,492C253,480.954 244.046,472 233,472L80,472C57.944,472 40,454.056 40,432L40,120C40,97.944 57.944,80 80,80L105,80L105,100C105,111.046 113.954,120 125,120C136.046,120 145,111.046 145,100L145,80L235,80L235,100C235,111.046 243.954,120 255,120C266.046,120 275,111.046 275,100L275,80L366,80L366,100C366,111.046 374.954,120 386,120C397.046,120 406,111.046 406,100L406,80L432,80C454.056,80 472,97.944 472,120L472,234C472,245.046 480.954,254 492,254C503.046,254 512,245.046 512,234L512,120C512,75.888 476.112,40 432,40Z" style="fill:white;fill-rule:nonzero;"/>
            <path d="M391,270C324.28,270 270,324.28 270,391C270,457.72 324.28,512 391,512C457.72,512 512,457.72 512,391C512,324.28 457.72,270 391,270ZM391,472C346.337,472 310,435.664 310,391C310,346.336 346.337,310 391,310C435.663,310 472,346.336 472,391C472,435.664 435.663,472 391,472Z" style="fill:white;fill-rule:nonzero;"/>
            <path d="M420,371L411,371L411,350C411,338.954 402.046,330 391,330C379.954,330 371,338.954 371,350L371,391C371,402.046 379.954,411 391,411L420,411C431.046,411 440,402.046 440,391C440,379.954 431.046,371 420,371Z" style="fill:white;fill-rule:nonzero;"/>
            <circle cx="299" cy="210" r="20" style="fill:white;"/>
            <circle cx="212" cy="297" r="20" style="fill:white;"/>
            <circle cx="125" cy="210" r="20" style="fill:white;"/>
            <circle cx="125" cy="297" r="20" style="fill:white;"/>
            <circle cx="125" cy="384" r="20" style="fill:white;"/>
            <circle cx="212" cy="384" r="20" style="fill:white;"/>
            <circle cx="212" cy="210" r="20" style="fill:white;"/>
        </g>
    </g>
</svg>
