<?xml version="1.0" encoding="UTF-8" standalone="no"?>
<!DOCTYPE svg PUBLIC "-//W3C//DTD SVG 1.1//EN" "http://www.w3.org/Graphics/SVG/1.1/DTD/svg11.dtd">
<svg width="100%" height="100%" viewBox="0 0 15 15" version="1.1" xmlns="http://www.w3.org/2000/svg" xmlns:xlink="http://www.w3.org/1999/xlink" xml:space="preserve" xmlns:serif="http://www.serif.com/" style="fill-rule:evenodd;clip-rule:evenodd;stroke-linejoin:round;stroke-miterlimit:1.41421;">
    <g transform="matrix(0.75,0,0,0.75,0,0)">
        <g transform="matrix(0.0434028,0,0,0.0434028,-1.08527,-1.11972)">
            <g>
                <circle cx="301.643" cy="168.285" r="26.195" style="fill:white;"/>
                <path d="M25.402,474.295C25.402,474.295 25.402,474.691 25.402,474.295C25.402,474.691 25.402,474.691 25.798,474.691C26.195,475.485 26.592,476.676 26.989,477.47C26.989,477.867 27.386,477.867 27.386,478.264C27.386,478.66 27.783,478.66 27.783,479.057L28.18,479.454C28.577,480.248 29.371,480.645 29.767,481.439L30.958,482.629C31.355,482.629 31.355,483.026 31.355,483.026C31.752,483.423 32.149,483.423 32.546,483.82L32.943,484.217C32.943,484.217 33.34,484.217 33.34,484.614C33.736,485.011 34.53,485.011 34.927,485.408C35.324,485.408 35.324,485.408 35.721,485.805C36.118,485.805 36.515,486.202 36.515,486.202C37.705,486.598 38.896,486.598 40.087,486.598L469.532,486.598C478.66,486.598 485.805,479.454 485.805,470.326L485.805,363.163L485.805,42.071C485.805,32.943 478.66,25.798 469.532,25.798L41.278,25.798C32.149,25.798 25.005,32.943 25.005,42.071L25.005,469.532C25.005,470.722 25.402,472.31 25.402,473.501C25.402,473.898 25.402,474.295 25.402,474.295ZM454.45,453.656L95.653,453.656L360.781,280.211L454.45,369.513L454.45,453.656ZM57.55,58.344L454.45,58.344L454.45,324.664L373.879,247.665C368.322,242.505 359.988,241.712 353.637,245.681L277.829,295.69L225.042,242.505C219.485,236.949 211.15,236.155 204.8,240.124L57.55,332.998L57.55,58.344ZM57.55,371.498L211.15,274.654L250.047,313.947L57.55,439.764L57.55,371.498Z" style="fill:white;fill-rule:nonzero;"/>
            </g>
        </g>
    </g>
</svg>
