<?xml version="1.0" encoding="UTF-8" standalone="no"?>
<!DOCTYPE svg PUBLIC "-//W3C//DTD SVG 1.1//EN" "http://www.w3.org/Graphics/SVG/1.1/DTD/svg11.dtd">
<svg width="100%" height="100%" viewBox="0 0 15 15" version="1.1" xmlns="http://www.w3.org/2000/svg" xmlns:xlink="http://www.w3.org/1999/xlink" xml:space="preserve" xmlns:serif="http://www.serif.com/" style="fill-rule:evenodd;clip-rule:evenodd;stroke-linejoin:round;stroke-miterlimit:1.41421;">
    <g transform="matrix(0.75,0,0,0.75,0,0)">
        <g transform="matrix(0.0390624,0,0,0.0390624,0,-8.17421e-05)">
            <path d="M206.5,192.363C202.6,188.463 196.27,188.463 192.36,192.363C188.46,196.273 188.46,202.603 192.36,206.503C196.27,210.413 202.6,210.413 206.5,206.503C210.41,202.603 210.41,196.273 206.5,192.363Z" style="fill:white;fill-rule:nonzero;"/>
            <path d="M361.199,318.771L371.261,295.304C372.835,291.634 372.074,287.378 369.325,284.481L344.597,258.416L503.025,107.965C503.088,107.906 503.149,107.847 503.21,107.786C510.319,100.678 513.387,90.55 511.416,80.694C503.31,40.137 471.866,8.694 431.311,0.588C421.458,-1.383 411.329,1.685 404.218,8.794C404.157,8.855 404.098,8.916 404.039,8.979L255.927,164.949L107.965,8.981C107.904,8.918 107.844,8.855 107.782,8.793C100.674,1.685 90.55,-1.38 80.688,0.587C60.834,4.563 42.79,14.22 28.512,28.509C14.217,42.793 4.56,60.837 0.584,80.694C0.196,82.631 0,84.61 0,86.574C0,94.584 3.121,102.117 8.789,107.785C8.852,107.846 8.914,107.908 8.978,107.968L167.459,258.316L142.67,284.487C139.925,287.384 139.166,291.636 140.739,295.304L150.801,318.77L8.79,460.792C3.123,466.458 0.003,473.99 0.003,482.003C0.003,490.016 3.123,497.548 8.789,503.213C14.455,508.88 21.987,512 30,512C38.013,512 45.545,508.88 51.211,503.214L193.233,361.201L216.699,371.264C217.969,371.809 219.307,372.074 220.637,372.074C223.148,372.074 225.622,371.129 227.517,369.334L256.019,342.332L284.478,369.331C286.374,371.128 288.849,372.075 291.362,372.075C292.691,372.075 294.031,371.81 295.3,371.265L318.766,361.203L460.788,503.214C466.455,508.88 473.987,512 482,512C490.013,512 497.545,508.88 503.21,503.214C508.877,497.548 511.997,490.016 511.997,482.003C511.997,473.99 508.877,466.458 503.211,460.792L361.199,318.771ZM418.437,22.86C420.802,20.544 424.138,19.549 427.39,20.199C460.001,26.719 485.286,52.003 491.805,84.615C492.454,87.864 491.46,91.202 489.145,93.566L330.833,243.907L269.71,179.477L418.437,22.86ZM37.068,489.073C35.18,490.96 32.67,492 30,492C27.33,492 24.82,490.96 22.931,489.071C21.043,487.182 20.003,484.673 20.003,482.003C20.003,479.333 21.043,476.823 22.932,474.935L38.48,459.386L52.618,473.524L37.068,489.073ZM66.761,459.382L52.621,445.243L159.31,338.545C159.875,339.73 160.517,340.87 161.228,341.964C161.472,344.138 162.421,346.248 164.088,347.915C165.755,349.582 167.864,350.53 170.038,350.774C171.133,351.486 172.273,352.128 173.458,352.692L66.761,459.382ZM161.712,293.465L181.968,272.08L204.451,293.409L174.522,323.338L161.712,293.465ZM218.536,350.291L188.665,337.481L218.967,307.179L241.489,328.545L218.536,350.291ZM220.648,234.795L323.335,337.482L293.467,350.29L188.472,250.679L22.854,93.565C21.013,91.683 20,89.205 20,86.574C20,85.923 20.065,85.263 20.195,84.618C23.393,68.65 31.156,54.14 42.654,42.652C54.137,31.16 68.646,23.396 84.611,20.199C87.857,19.551 91.196,20.543 93.56,22.857L350.286,293.471L337.478,323.338L234.791,220.652C230.885,216.748 224.555,216.748 220.648,220.652C216.743,224.557 216.743,230.889 220.648,234.795ZM445.239,459.382L338.542,352.692C339.728,352.127 340.867,351.485 341.961,350.774C344.135,350.53 346.244,349.581 347.911,347.915C349.578,346.248 350.527,344.138 350.771,341.964C351.482,340.869 352.125,339.729 352.689,338.545L459.378,445.243L445.239,459.382ZM489.068,489.072C487.18,490.96 484.67,492 482,492C479.33,492 476.82,490.96 474.932,489.071L459.383,473.523L473.521,459.385L489.07,474.935C490.957,476.824 491.997,479.333 491.997,482.003C491.997,484.673 490.957,487.183 489.068,489.072Z" style="fill:white;fill-rule:nonzero;"/>
            <path d="M256,386.003C222.916,386.003 196,412.919 196,446.003C196,479.087 222.916,506.003 256,506.003C289.084,506.003 316,479.087 316,446.003C316,412.919 289.084,386.003 256,386.003ZM256,486.003C233.944,486.003 216,468.059 216,446.003C216,423.947 233.944,406.003 256,406.003C278.056,406.003 296,423.947 296,446.003C296,468.059 278.056,486.003 256,486.003Z" style="fill:white;fill-rule:nonzero;"/>
        </g>
    </g>
</svg>
