<?xml version="1.0" encoding="UTF-8" standalone="no"?>
<!DOCTYPE svg PUBLIC "-//W3C//DTD SVG 1.1//EN" "http://www.w3.org/Graphics/SVG/1.1/DTD/svg11.dtd">
<svg width="100%" height="100%" viewBox="0 0 17 15" version="1.1" xmlns="http://www.w3.org/2000/svg" xmlns:xlink="http://www.w3.org/1999/xlink" xml:space="preserve" xmlns:serif="http://www.serif.com/" style="fill-rule:evenodd;clip-rule:evenodd;stroke-linejoin:round;stroke-miterlimit:1.41421;">
    <g transform="matrix(0.75,0,0,0.75,0,0)">
        <g transform="matrix(0.0434783,0,0,0.0434783,0,-1.13043)">
            <path d="M256,366C250.48,366 246,370.48 246,376C246,381.52 250.48,386 256,386C261.52,386 266,381.52 266,376C266,370.48 261.52,366 256,366Z" style="fill:white;fill-rule:nonzero;"/>
            <path d="M482,106L462,106L426,106L426,81C426,71.647 422.359,62.856 415.752,56.25C409.144,49.641 400.353,46 391,46C384.958,46 379.268,47.54 374.303,50.247C369.754,36.194 356.548,26 341,26C331.221,26 322.37,30.036 316.013,36.525C315.924,36.434 315.841,36.34 315.752,36.25C309.144,29.641 300.353,26 291,26C281.214,26 272.358,30.042 266,36.539C259.642,30.042 250.786,26 241,26C221.701,26 206,41.701 206,61L206,106L90,106C89.984,106 89.969,106.003 89.953,106.003C89.612,106.005 89.271,106.026 88.932,106.062C88.819,106.074 88.708,106.095 88.596,106.11C88.349,106.145 88.103,106.186 87.858,106.24C87.74,106.266 87.623,106.296 87.506,106.326C87.263,106.388 87.023,106.46 86.785,106.541C86.68,106.577 86.575,106.611 86.471,106.651C86.209,106.75 85.952,106.862 85.698,106.983C85.642,107.01 85.583,107.028 85.528,107.056L85.365,107.138C85.358,107.142 85.351,107.145 85.344,107.149L5.528,147.056C2.14,148.75 0,152.212 0,156C0,159.788 2.14,163.25 5.528,164.944L85.342,204.851C85.351,204.856 85.36,204.86 85.369,204.865L85.528,204.944C85.582,204.971 85.639,204.989 85.693,205.015C85.95,205.138 86.21,205.251 86.475,205.351C86.576,205.389 86.678,205.423 86.78,205.458C87.022,205.54 87.266,205.613 87.513,205.677C87.626,205.706 87.739,205.735 87.853,205.76C88.104,205.815 88.356,205.857 88.609,205.893C88.715,205.908 88.82,205.927 88.926,205.939C89.283,205.976 89.641,206 90,206L160.571,206C164.071,215.215 169.487,223.628 176.499,230.642L211.359,265.501C220.8,274.942 226,287.496 226,300.85L226,326L216,326C210.477,326 206,330.478 206,336L206,476C206,481.522 210.477,486 216,486L416,486C421.522,486 426,481.522 426,476L426,336C426,330.478 421.522,326 416,326L406,326L406,298.36C406,285.981 408.784,273.512 414.049,262.307C422.091,245.216 426,229.587 426,214.53L426,206L482,206C498.542,206 512,192.542 512,176L512,136C512,119.458 498.542,106 482,106ZM376,81C376,72.729 382.729,66 391,66C395.01,66 398.777,67.56 401.609,70.393C404.44,73.223 406,76.99 406,81L406,131C406,139.271 399.271,146 391,146C382.729,146 376,139.271 376,131L376,81ZM326,116L326,61C326,52.729 332.729,46 341,46C349.271,46 356,52.729 356,61L356,131C356,139.271 349.271,146 341,146C332.729,146 326,139.271 326,131L326,116ZM276,61C276,52.729 282.729,46 291,46C295.01,46 298.777,47.56 301.609,50.393C304.44,53.223 306,56.99 306,61L306,106L276,106L276,61ZM226,61C226,52.729 232.729,46 241,46C249.271,46 256,52.729 256,61L256,106L226,106L226,61ZM87.525,183.582L32.361,156L87.525,128.418C99.553,144.76 99.553,167.24 87.525,183.582ZM156,176L156,181.15C156,182.768 156.062,184.386 156.175,186L109.412,186C118.89,167.193 118.89,144.807 109.412,126L177.011,126C174.498,128.47 172.148,131.136 169.999,134.001C160.972,146.041 156,160.957 156,176ZM406,466L226,466L226,346L406,346L406,466ZM406,214.53C406,226.579 402.713,239.422 395.949,253.798C389.44,267.651 386,283.062 386,298.36L386,326L246,326L246,300.85C246,282.154 238.72,264.578 225.501,251.359L190.641,216.501C184.298,210.157 179.775,202.214 177.558,193.523C176.524,189.48 176,185.317 176,181.151L176,176C176,165.255 179.552,154.601 186,146C193.754,135.661 205.037,128.802 217.774,126.685C220.498,126.23 223.266,126 226,126L304.74,126C302.981,132.853 299.417,139.141 294.279,144.279C286.721,151.837 276.678,156 266,156L236,156C230.812,156 226.485,159.968 226.038,165.136C225.59,170.305 229.169,174.958 234.279,175.851C250.798,178.738 265.174,187.92 274.759,201.708C274.781,201.739 274.807,201.766 274.829,201.797C282.004,212.171 285.833,224.325 285.9,236.952L286,256.052C286.029,261.558 290.5,266 295.999,266C296.017,266 296.034,266 296.052,266C301.575,265.971 306.029,261.471 306,255.948L305.9,236.847C305.843,226.155 303.735,215.723 299.738,205.999L406,205.999L406,214.53ZM452,186L287.989,186C284.777,181.953 281.232,178.251 277.396,174.925C289.077,172.69 299.822,167.021 308.419,158.421C310.255,156.585 311.943,154.642 313.507,152.622C319.923,160.76 329.858,166 341,166C350.786,166 359.642,161.958 366,155.461C372.358,161.957 381.214,166 391,166C410.299,166 426,150.299 426,131L426,126L452,126L452,186ZM492,176C492,181.514 487.514,186 482,186L472,186L472,126L482,126C487.514,126 492,130.486 492,136L492,176Z" style="fill:white;fill-rule:nonzero;"/>
            <path d="M376,366L296,366C290.478,366 286,370.478 286,376C286,381.522 290.478,386 296,386L376,386C381.522,386 386,381.522 386,376C386,370.478 381.522,366 376,366Z" style="fill:white;fill-rule:nonzero;"/>
        </g>
    </g>
</svg>
