<?xml version="1.0" encoding="UTF-8" standalone="no"?>
<!DOCTYPE svg PUBLIC "-//W3C//DTD SVG 1.1//EN" "http://www.w3.org/Graphics/SVG/1.1/DTD/svg11.dtd">
<svg width="100%" height="100%" viewBox="0 0 15 16" version="1.1" xmlns="http://www.w3.org/2000/svg" xmlns:xlink="http://www.w3.org/1999/xlink" xml:space="preserve" xmlns:serif="http://www.serif.com/" style="fill-rule:evenodd;clip-rule:evenodd;stroke-linejoin:round;stroke-miterlimit:1.41421;">
    <g transform="matrix(0.75,0,0,0.75,0,0)">
        <g transform="matrix(0.0390626,0,0,0.0390626,-3.95108e-05,1.26176e-05)">
            <path d="M477.606,128.055C443.431,68.863 388.251,26.52 322.229,8.83C256.208,-8.862 187.25,0.217 128.055,34.394C68.861,68.57 26.52,123.75 8.83,189.772C-8.86,255.793 0.219,324.753 34.394,383.945C68.568,443.137 123.75,485.48 189.771,503.17C211.817,509.078 234.188,512 256.417,512C300.756,512 344.518,500.371 383.946,477.607C443.138,443.432 485.481,388.252 503.171,322.23C520.862,256.207 511.781,187.249 477.606,128.055ZM477.429,315.333C461.581,374.479 423.649,423.914 370.619,454.53C317.591,485.147 255.813,493.279 196.667,477.433C137.52,461.585 88.086,423.653 57.469,370.623C26.853,317.595 18.72,255.816 34.569,196.669C50.418,137.523 88.35,88.09 141.379,57.472C176.704,37.077 215.903,26.66 255.628,26.66C275.538,26.66 295.587,29.278 315.33,34.569C374.476,50.417 423.911,88.349 454.527,141.379C485.144,194.408 493.278,256.186 477.429,315.333Z" style="fill:white;fill-rule:nonzero;"/>
            <path d="M378.778,231.852L214.252,136.862C205.521,131.821 195.097,131.823 186.366,136.861C177.635,141.901 172.422,150.93 172.422,161.011L172.422,350.991C172.422,361.072 177.634,370.1 186.366,375.141C190.731,377.662 195.518,378.921 200.307,378.921C205.097,378.921 209.886,377.659 214.251,375.14L378.779,280.151C387.509,275.109 392.72,266.081 392.72,256C392.72,245.92 387.508,236.892 378.778,231.852ZM365.452,257.074L200.925,352.063C200.724,352.18 200.305,352.421 199.689,352.063C199.071,351.706 199.071,351.224 199.071,350.992L199.071,161.012C199.071,160.78 199.071,160.298 199.689,159.941C199.931,159.801 200.142,159.753 200.322,159.753C200.602,159.753 200.804,159.87 200.927,159.941L365.453,254.931C365.654,255.047 366.071,255.288 366.071,256.002C366.071,256.716 365.652,256.958 365.452,257.074Z" style="fill:white;fill-rule:nonzero;"/>
            <path d="M413.303,134.44C381.614,93.502 333.977,65.998 282.605,58.979C275.322,57.982 268.596,63.085 267.599,70.378C266.604,77.669 271.707,84.387 278.998,85.384C323.51,91.465 364.781,115.293 392.23,150.753C394.856,154.145 398.795,155.921 402.776,155.921C405.625,155.921 408.496,155.012 410.922,153.132C416.741,148.628 417.807,140.259 413.303,134.44Z" style="fill:white;fill-rule:nonzero;"/>
        </g>
    </g>
</svg>
