<?xml version="1.0" encoding="UTF-8" standalone="no"?>
<!DOCTYPE svg PUBLIC "-//W3C//DTD SVG 1.1//EN" "http://www.w3.org/Graphics/SVG/1.1/DTD/svg11.dtd">
<svg width="100%" height="100%" viewBox="0 0 16 16" version="1.1" xmlns="http://www.w3.org/2000/svg" xmlns:xlink="http://www.w3.org/1999/xlink" xml:space="preserve" xmlns:serif="http://www.serif.com/" style="fill-rule:evenodd;clip-rule:evenodd;stroke-linejoin:round;stroke-miterlimit:1.41421;">
    <g transform="matrix(0.75,0,0,0.75,0,0)">
        <g transform="matrix(0.040876,0,0,0.040876,0,-0.0021527)">
            <path d="M436.901,75.046C388.555,26.701 324.305,0.053 255.947,0.053C187.589,0.053 123.339,26.701 74.994,75.046C26.648,123.392 0,187.642 0,256C0,324.358 26.648,388.608 74.994,436.954C123.339,485.299 187.589,511.947 255.947,511.947C295.656,511.947 331.889,504.574 360.643,490.776C387.923,477.61 407.725,458.757 416.467,437.796C426.895,412.623 420.997,386.396 400.352,365.752L399.615,365.015C399.931,364.593 400.352,364.277 400.668,363.961C415.414,348.478 415.414,328.15 400.458,313.193L364.014,276.75C356.852,269.377 348.215,265.374 339.051,265.374C329.888,265.374 321.145,269.271 313.772,276.644L294.813,295.603C293.865,295.077 293.023,294.655 292.075,294.234C289.758,293.075 287.651,292.022 285.861,290.864C266.585,278.646 249.101,262.636 232.354,242.097C224.981,232.828 219.925,224.928 216.133,217.134C220.873,212.71 225.297,208.181 229.615,203.757C231.406,201.861 233.302,200.071 235.198,198.175C250.681,182.692 250.681,162.679 235.198,147.196L217.187,129.185C215.08,127.078 213.079,125.077 211.078,122.971C207.075,118.863 202.967,114.65 198.544,110.542C191.381,103.485 182.85,99.798 173.791,99.798C164.733,99.798 156.096,103.485 148.723,110.542C148.618,110.647 148.618,110.647 148.513,110.753L125.867,133.398C116.809,142.456 111.542,153.621 110.489,166.471C108.909,186.483 114.702,205.021 119.231,217.134C130.08,246.415 146.301,273.59 170.421,302.66C199.702,337.629 234.987,365.331 275.328,384.816C290.811,392.189 311.561,400.826 334.943,402.406C336.418,402.511 337.893,402.511 339.367,402.511C355.693,402.511 369.491,396.613 380.235,384.922C380.34,384.816 380.551,384.606 380.656,384.5C380.972,384.079 381.393,383.658 381.814,383.236L382.446,383.868C395.928,397.35 399.615,412.728 393.085,428.422C380.972,457.177 333.89,486.669 255.947,486.669C128.711,486.669 25.279,383.236 25.279,256C25.279,128.764 128.711,25.331 255.947,25.331C383.184,25.331 486.616,128.764 486.616,256C486.616,276.96 483.772,297.605 478.295,317.512C476.399,324.253 480.402,331.204 487.143,333.1C493.884,334.996 500.835,330.994 502.731,324.253C508.84,302.134 512,279.172 512,256C511.895,187.642 485.247,123.392 436.901,75.046ZM361.486,367.753C355.482,374.178 348.741,377.022 339.367,377.022C338.419,377.022 337.471,377.022 336.523,376.917C317.564,375.653 299.659,368.174 286.282,361.749C249.312,343.844 216.871,318.46 189.907,286.229C167.682,259.476 152.831,234.724 142.93,208.181C137.032,192.171 134.82,179.953 135.663,168.367C136.295,161.521 138.822,155.938 143.773,151.093L166.418,128.553C168.209,126.868 170.948,124.866 173.897,124.866C176.846,124.866 179.374,126.762 180.954,128.448C181.059,128.553 181.164,128.658 181.27,128.764C185.272,132.45 189.064,136.347 193.066,140.455C195.173,142.562 197.28,144.774 199.386,146.88L217.397,164.891C222.98,170.474 222.98,174.581 217.397,180.164C215.501,182.06 213.605,183.956 211.71,185.851C206.127,191.434 200.966,196.806 195.278,201.861C195.068,201.967 194.962,202.177 194.752,202.388C186.852,210.288 189.591,218.503 190.433,221.242C190.539,221.558 190.644,221.768 190.749,222.084C195.594,233.776 202.335,244.73 212.657,257.791L212.763,257.896C231.301,280.752 250.786,298.447 272.379,312.14C275.222,313.93 278.066,315.405 280.805,316.774C283.122,317.933 285.229,318.986 287.019,320.145C287.335,320.355 287.756,320.566 288.178,320.777C290.916,322.146 293.655,322.778 296.393,322.778C301.028,322.778 305.346,320.882 309.033,317.09L331.678,294.445C333.469,292.654 336.102,290.548 339.051,290.548C341.79,290.548 344.318,292.549 345.898,294.234L382.552,330.888C387.713,336.049 387.713,340.789 382.341,346.372L382.236,346.477C379.813,349.11 377.18,351.638 374.336,354.376C370.123,358.484 365.699,362.803 361.486,367.753Z" style="fill:white;fill-rule:nonzero;"/>
        </g>
    </g>
</svg>
