<?xml version="1.0" encoding="UTF-8" standalone="no"?>
<!DOCTYPE svg PUBLIC "-//W3C//DTD SVG 1.1//EN" "http://www.w3.org/Graphics/SVG/1.1/DTD/svg11.dtd">
<svg width="100%" height="100%" viewBox="0 0 15 15" version="1.1" xmlns="http://www.w3.org/2000/svg" xmlns:xlink="http://www.w3.org/1999/xlink" xml:space="preserve" xmlns:serif="http://www.serif.com/" style="fill-rule:evenodd;clip-rule:evenodd;stroke-linejoin:round;stroke-miterlimit:1.41421;">
    <g transform="matrix(0.75,0,0,0.75,0,0)">
        <g transform="matrix(0.0384822,0,0,0.0384822,-0.270606,0)">
            <path d="M391.892,271.463L391.892,41.235L48.267,41.235L48.267,470.766L206.334,470.766C217.674,470.766 226.951,480.043 226.951,491.383C226.951,502.723 217.674,512 206.334,512L27.649,512C16.309,512 7.032,502.723 7.032,491.383L7.032,20.617C7.032,9.277 16.31,0 27.649,0L412.508,0C423.847,0 433.125,9.277 433.125,20.617L433.125,271.463C433.125,282.802 423.847,292.08 412.508,292.08C401.168,292.08 391.892,282.802 391.892,271.463ZM498.072,321.632C489.481,314.072 476.424,314.759 468.864,323.35L355.811,449.117L299.113,394.48C290.866,386.577 277.808,386.92 269.905,395.168C262.001,403.415 262.344,416.472 270.592,424.376L342.753,493.787C346.532,497.567 351.687,499.629 357.185,499.629C357.528,499.629 357.528,499.629 357.872,499.629C363.37,499.286 368.868,496.881 372.304,492.757L499.446,351.183C507.349,342.249 506.661,329.192 498.072,321.632ZM316.294,120.269L130.737,120.269C119.397,120.269 110.12,129.546 110.12,140.886C110.12,152.226 119.397,161.503 130.737,161.503L316.294,161.503C327.633,161.503 336.911,152.226 336.911,140.886C336.911,129.546 327.633,120.269 316.294,120.269ZM336.912,254.282C336.912,242.942 327.635,233.665 316.295,233.665L130.737,233.665C119.397,233.665 110.12,242.942 110.12,254.282C110.12,265.622 119.397,274.899 130.737,274.899L316.294,274.899C327.633,274.899 336.912,265.622 336.912,254.282ZM130.737,343.624C119.397,343.624 110.12,352.902 110.12,364.241C110.12,375.581 119.397,384.859 130.737,384.859L185.717,384.859C197.057,384.859 206.334,375.581 206.334,364.241C206.334,352.902 197.057,343.624 185.717,343.624L130.737,343.624Z" style="fill:white;fill-rule:nonzero;"/>
        </g>
    </g>
</svg>
