<?xml version="1.0" encoding="UTF-8" standalone="no"?>
<!DOCTYPE svg PUBLIC "-//W3C//DTD SVG 1.1//EN" "http://www.w3.org/Graphics/SVG/1.1/DTD/svg11.dtd">
<svg width="100%" height="100%" viewBox="0 0 51 51" version="1.1" xmlns="http://www.w3.org/2000/svg" xmlns:xlink="http://www.w3.org/1999/xlink" xml:space="preserve" xmlns:serif="http://www.serif.com/" style="fill-rule:evenodd;clip-rule:evenodd;stroke-linejoin:round;stroke-miterlimit:1.41421;">
    <g transform="matrix(0.75,0,0,0.75,0,0)">
        <g transform="matrix(0.132813,0,0,0.132813,0,0)">
            <path d="M497.749,494.933L339.396,301.79C337.775,299.819 335.36,298.667 332.8,298.667L331.17,298.667L326.067,274.85C331.469,275.593 336.845,276.096 342.17,276.096C358.17,276.096 373.769,271.778 388.753,257.331C394.001,252.279 398.993,245.333 404.284,237.969C412.433,226.645 421.666,213.803 430.387,210.816C430.396,210.807 430.404,210.807 430.421,210.799C434.884,209.28 437.265,204.442 435.755,199.97C434.236,195.516 429.38,193.092 424.926,194.645C424.926,194.645 424.917,194.645 424.909,194.645C413.389,198.596 400.725,191.684 393.395,184.602C385.323,176.811 379.631,166.69 373.606,155.981L370.236,150.042C365.261,141.389 359.305,132.147 351.599,124.442C366.054,113.545 375.467,96.273 375.467,76.8L375.467,8.533C375.467,3.814 371.644,0 366.933,0L332.8,0C328.09,0 324.267,3.814 324.267,8.533L324.267,76.8C324.267,81.51 320.435,85.333 315.733,85.333L294.059,85.333C302.199,76.262 307.2,64.324 307.2,51.2C307.2,22.963 284.237,0 256,0C227.763,0 204.8,22.963 204.8,51.2C204.8,64.324 209.801,76.262 217.941,85.333L196.267,85.333C191.565,85.333 187.733,81.51 187.733,76.8L187.733,8.533C187.733,3.814 183.91,0 179.2,0L145.067,0C140.356,0 136.533,3.814 136.533,8.533L136.533,76.8C136.533,109.73 163.328,136.533 196.267,136.533L204.8,136.533L204.8,186.837L180.83,298.667L179.2,298.667C176.64,298.667 174.225,299.819 172.604,301.79L14.251,494.933L0,494.933L0,512L512,512L512,494.933L497.749,494.933ZM355.43,158.558L358.724,164.369C365.082,175.676 371.661,187.366 381.525,196.898C387.319,202.487 395.076,207.684 403.789,210.56C399.113,215.936 394.735,222.02 390.426,228.011C385.596,234.726 381.039,241.067 376.909,245.052C361.677,259.729 346.086,260.915 322.227,256.964L307.2,186.837L307.2,136.533L315.733,136.533C322.739,136.533 329.438,135.262 335.693,133.035C343.808,139.639 349.978,149.077 355.43,158.558ZM256,17.067C274.825,17.067 290.133,32.375 290.133,51.2C290.133,70.025 274.825,85.333 256,85.333C237.175,85.333 221.867,70.025 221.867,51.2C221.867,32.375 237.175,17.067 256,17.067ZM221.679,189.525C221.807,188.937 221.867,188.331 221.867,187.733L221.867,128C221.867,123.281 218.044,119.467 213.333,119.467L196.267,119.467C172.74,119.467 153.6,100.326 153.6,76.8L153.6,17.067L170.667,17.067L170.667,76.8C170.667,90.914 182.153,102.4 196.267,102.4L315.733,102.4C329.847,102.4 341.333,90.914 341.333,76.8L341.333,17.067L358.4,17.067L358.4,76.8C358.4,100.326 339.26,119.467 315.733,119.467L298.667,119.467C293.956,119.467 290.133,123.281 290.133,128L290.133,187.733C290.133,188.331 290.193,188.937 290.321,189.525L313.711,298.667L288.265,298.667L264.277,202.735C263.33,198.929 259.917,196.267 256,196.267C252.083,196.267 248.67,198.929 247.723,202.735L223.735,298.667L198.289,298.667L221.679,189.525ZM270.669,298.667L241.331,298.667L256,239.983L270.669,298.667ZM183.236,315.733L328.764,315.733L371.277,367.59L341.333,397.534L304.7,360.9C301.363,357.564 295.97,357.564 292.634,360.9L256,397.534L219.366,360.9C216.03,357.564 210.637,357.564 207.3,360.9L170.667,397.534L140.723,367.59L183.236,315.733ZM36.318,494.933L129.852,380.851L164.634,415.633C167.97,418.97 173.363,418.97 176.7,415.633L213.333,378.999L249.967,415.633C253.303,418.97 258.697,418.97 262.033,415.633L298.667,378.999L335.3,415.633C336.964,417.297 339.149,418.133 341.333,418.133C343.518,418.133 345.702,417.297 347.366,415.633L382.148,380.851L475.682,494.933L36.318,494.933Z" style="fill:rgb(221,220,197);fill-rule:nonzero;"/>
            <rect x="247.467" y="460.8" width="17.067" height="17.067" style="fill:rgb(221,220,197);"/>
            <rect x="281.6" y="460.8" width="17.067" height="17.067" style="fill:rgb(221,220,197);"/>
            <rect x="213.333" y="460.8" width="17.067" height="17.067" style="fill:rgb(221,220,197);"/>
            <path d="M110.933,51.2C87.407,51.2 68.267,32.06 68.267,8.533C68.267,3.814 64.444,0 59.733,0C55.023,0 51.2,3.814 51.2,8.533C51.2,32.06 32.06,51.2 8.533,51.2C3.823,51.2 0,55.014 0,59.733C0,64.452 3.823,68.267 8.533,68.267C32.06,68.267 51.2,87.407 51.2,110.933C51.2,115.652 55.023,119.467 59.733,119.467C64.444,119.467 68.267,115.652 68.267,110.933C68.267,87.407 87.407,68.267 110.933,68.267C115.644,68.267 119.467,64.452 119.467,59.733C119.467,55.014 115.644,51.2 110.933,51.2ZM59.733,80.188C54.69,71.825 47.642,64.777 39.279,59.733C47.642,54.69 54.69,47.642 59.733,39.279C64.777,47.642 71.825,54.69 80.188,59.733C71.825,64.777 64.777,71.825 59.733,80.188Z" style="fill:rgb(221,220,197);fill-rule:nonzero;"/>
            <path d="M503.467,307.2C479.94,307.2 460.8,288.06 460.8,264.533C460.8,259.814 456.977,256 452.267,256C447.556,256 443.733,259.814 443.733,264.533C443.733,288.06 424.593,307.2 401.067,307.2C396.356,307.2 392.533,311.014 392.533,315.733C392.533,320.452 396.356,324.267 401.067,324.267C424.593,324.267 443.733,343.407 443.733,366.933C443.733,371.652 447.556,375.467 452.267,375.467C456.977,375.467 460.8,371.652 460.8,366.933C460.8,343.407 479.94,324.267 503.467,324.267C508.177,324.267 512,320.452 512,315.733C512,311.014 508.177,307.2 503.467,307.2ZM452.267,336.188C447.223,327.825 440.175,320.768 431.812,315.733C440.183,310.69 447.223,303.642 452.267,295.279C457.31,303.642 464.358,310.699 472.721,315.733C464.358,320.777 457.31,327.825 452.267,336.188Z" style="fill:rgb(221,220,197);fill-rule:nonzero;"/>
            <path d="M102.4,204.8C85.299,204.8 69.137,212.147 57.865,224.759C52.983,222.857 47.829,221.867 42.667,221.867C19.14,221.867 0,241.007 0,264.533C0,267.887 0.486,271.377 1.485,275.217C2.458,278.972 5.854,281.6 9.745,281.6L152.832,281.6C156.996,281.6 160.555,278.588 161.246,274.475C161.843,270.933 162.133,267.674 162.133,264.533C162.133,231.603 135.339,204.8 102.4,204.8ZM17.067,264.533C17.067,250.419 28.553,238.933 42.667,238.933C47.266,238.933 51.712,240.213 55.868,242.731C59.733,245.086 64.742,244.002 67.311,240.299C75.298,228.762 88.414,221.867 102.4,221.867C125.926,221.867 145.067,241.007 145.067,264.533L17.067,264.533Z" style="fill:rgb(221,220,197);fill-rule:nonzero;"/>
        </g>
    </g>
</svg>
