<?xml version="1.0" encoding="UTF-8" standalone="no"?>
<!DOCTYPE svg PUBLIC "-//W3C//DTD SVG 1.1//EN" "http://www.w3.org/Graphics/SVG/1.1/DTD/svg11.dtd">
<svg width="100%" height="100%" viewBox="0 0 248 30" version="1.1" xmlns="http://www.w3.org/2000/svg" xmlns:xlink="http://www.w3.org/1999/xlink" xml:space="preserve" xmlns:serif="http://www.serif.com/" style="fill-rule:evenodd;clip-rule:evenodd;stroke-linejoin:round;stroke-miterlimit:1.41421;">
    <g transform="matrix(0.75,0,0,0.75,0,0)">
        <g transform="matrix(1.52816,0,0,1.27806,-713.916,-949.127)">
            <path d="M667.9,742.995C667.664,742.759 667.366,742.629 667.059,742.629C656.829,742.629 485.211,742.629 468.484,742.629C467.761,742.629 467.175,743.33 467.175,744.194C467.175,749.536 467.175,767.019 467.175,772.361C467.175,773.226 467.761,773.926 468.484,773.926C485.21,773.926 656.815,773.926 667.057,773.926C667.366,773.926 667.665,773.796 667.901,773.558C669.809,771.635 678.665,762.711 681.903,759.449C682.198,759.151 682.368,758.712 682.368,758.251C682.368,757.789 682.197,757.351 681.901,757.054C678.661,753.801 669.807,744.91 667.9,742.995Z" style="fill:rgb(97,20,39);"/>
        </g>
    </g>
</svg>
