<?xml version="1.0" encoding="UTF-8" standalone="no"?>
<!DOCTYPE svg PUBLIC "-//W3C//DTD SVG 1.1//EN" "http://www.w3.org/Graphics/SVG/1.1/DTD/svg11.dtd">
<svg width="100%" height="100%" viewBox="0 0 80 44" version="1.1" xmlns="http://www.w3.org/2000/svg" xmlns:xlink="http://www.w3.org/1999/xlink" xml:space="preserve" xmlns:serif="http://www.serif.com/" style="fill-rule:evenodd;clip-rule:evenodd;stroke-linejoin:round;stroke-miterlimit:1.41421;">
    <g transform="matrix(0.75,0,0,0.75,0,0)">
        <g transform="matrix(0.20648,0,0,0.20648,0,-24.0919)">
            <g>
                <g>
                    <path d="M256,395.321C198.425,395.321 136.46,372.804 76.805,330.203C32.209,298.358 4.684,266.808 3.534,265.478C-1.178,260.038 -1.178,251.962 3.534,246.521C4.684,245.193 32.208,213.641 76.805,181.796C136.461,139.198 198.426,116.679 256,116.679C313.575,116.679 375.541,139.197 435.195,181.796C479.791,213.641 507.316,245.192 508.466,246.521C513.178,251.961 513.178,260.037 508.466,265.478C507.316,266.805 479.792,298.358 435.195,330.203C375.541,372.803 313.576,395.321 256,395.321ZM34.329,256.001C45.46,267.351 66.467,287.309 94.204,307.047C132.23,334.105 191.167,366.364 256,366.364C320.833,366.364 379.771,334.105 417.796,307.047C445.529,287.313 466.538,267.352 477.671,256.001C466.542,244.651 445.533,224.693 417.796,204.955C379.771,177.896 320.833,145.638 256,145.638C191.167,145.638 132.23,177.896 94.204,204.955C66.471,224.69 45.462,244.648 34.329,256.001Z" style="fill:rgb(221,220,197);fill-rule:nonzero;"/>
                    <path d="M256,345.767C206.503,345.767 166.234,305.497 166.234,256.001C166.234,206.505 206.503,166.236 256,166.236C277.768,166.236 298.768,174.128 315.127,188.46C321.142,193.729 321.747,202.876 316.478,208.891C311.209,214.906 302.061,215.509 296.047,210.242C284.969,200.536 270.746,195.192 255.999,195.192C222.468,195.192 195.19,222.472 195.19,256.001C195.19,289.531 222.468,316.81 255.999,316.81C289.531,316.81 316.808,289.531 316.808,256.001C316.808,248.006 323.291,241.523 331.286,241.523C339.282,241.523 345.764,248.006 345.764,256.001C345.767,305.497 305.497,345.767 256,345.767Z" style="fill:rgb(221,220,197);fill-rule:nonzero;"/>
                    <path d="M256,284.958C240.033,284.958 227.043,271.968 227.043,256.001C227.043,240.034 240.033,227.045 256,227.045C271.968,227.045 284.957,240.034 284.957,256.001C284.957,271.968 271.968,284.958 256,284.958Z" style="fill:rgb(221,220,197);fill-rule:nonzero;"/>
                </g>
            </g>
        </g>
    </g>
</svg>
